<svg width="200" height="200" viewBox="0 0 200 200" fill="none" xmlns="http://www.w3.org/2000/svg">
<path d="M0 174.212C0 188.455 11.5461 200 25.7883 200H174.211C188.455 200 200 188.454 200 174.212V25.7891C200 11.5445 188.454 0 174.212 0H25.7891C11.5445 0 0 11.5461 0 25.7883V174.211V174.212Z" fill="#563D7C"/>
<path d="M82.9359 88.4672V60.1445H107.866C110.241 60.1445 112.53 60.3422 114.735 60.7383C116.94 61.1336 118.891 61.8398 120.587 62.8578C122.282 63.8758 123.639 65.2891 124.657 67.0977C125.674 68.907 126.184 71.225 126.184 74.0508C126.184 79.1391 124.657 82.8141 121.604 85.075C118.552 87.3367 114.651 88.4672 109.902 88.4672H82.9359ZM56.3086 39.4531V160.547H114.99C120.417 160.547 125.703 159.869 130.848 158.512C135.992 157.155 140.571 155.063 144.585 152.237C148.598 149.41 151.793 145.763 154.167 141.298C156.542 136.831 157.729 131.545 157.729 125.44C157.729 117.864 155.891 111.391 152.217 106.021C148.542 100.65 142.973 96.8906 135.511 94.7422C140.938 92.1422 145.038 88.8062 147.808 84.7359C150.577 80.6656 151.962 75.5781 151.962 69.4719C151.962 63.8188 151.03 59.0703 149.164 55.2258C147.298 51.382 144.67 48.3008 141.277 45.9828C137.886 43.6648 133.816 41.9969 129.066 40.9797C124.318 39.9617 119.06 39.4531 113.294 39.4531H56.3086ZM82.9359 139.855V106.614H111.937C117.703 106.614 122.339 107.942 125.845 110.6C129.349 113.257 131.102 117.695 131.102 123.913C131.102 127.08 130.565 129.68 129.491 131.715C128.416 133.75 126.975 135.362 125.166 136.548C123.357 137.736 121.265 138.584 118.891 139.093C116.516 139.601 114.029 139.855 111.428 139.855H82.9359Z" fill="white"/>
</svg>
