<svg width="513" height="447" viewBox="0 0 513 447" fill="none" xmlns="http://www.w3.org/2000/svg">
<path d="M227.105 302.261V294.144L220.116 297.061L207.808 291.099C203.858 289.197 197.324 289.197 193.221 291.099L69.3824 350.841L62.3925 347.924V356.042C62.2405 357.437 63.1522 358.833 65.4314 359.847L81.8418 367.711C85.7928 369.614 92.3266 369.614 96.429 367.711L224.37 306.066C226.194 304.925 227.105 303.529 227.105 302.261Z" fill="#55C3FE"/>
<path d="M69.3824 350.715L62.3925 347.797V355.915C62.2405 357.31 63.1522 358.705 65.4314 359.72L81.8418 367.584C83.8173 368.472 86.4009 368.979 88.8313 368.979V341.328L69.3824 350.715Z" fill="#179ECC"/>
<path d="M81.5382 358.959C85.4893 360.862 92.023 360.862 96.1254 358.959L224.067 297.315C228.018 295.412 228.018 292.241 224.067 290.339L207.656 282.474C203.705 280.572 197.172 280.572 193.069 282.474L65.1277 344.119C61.177 346.022 61.177 349.193 65.1277 351.095L81.5382 358.959Z" fill="#97DFFF"/>
<path d="M120.286 337.777L111.473 333.464V295.412L168.91 267.761L120.286 337.777Z" fill="#179ECC"/>
<path d="M177.875 309.998L120.287 337.777V299.598L177.875 271.946V309.998Z" fill="#35AFE5"/>
<path d="M272.69 70.7771L264.333 66.8451C264.181 66.7182 264.03 66.5914 263.725 66.5914C262.966 66.3377 261.902 66.4645 260.687 66.9719L19.9984 182.904C17.4152 184.173 15.2879 187.217 15.2879 189.627V343.992C15.2879 345.26 15.7437 346.148 16.6555 346.528C16.8074 346.528 16.9593 346.656 17.1113 346.656L25.4685 350.588L27.14 343.104L24.7088 343.992L260.838 230.216C263.421 228.947 265.548 225.903 265.548 223.493V74.9629L272.69 70.7771Z" fill="#35AFE5"/>
<path d="M264.18 66.8451C264.029 66.7182 263.876 66.5914 263.573 66.5914C262.813 66.3377 261.75 66.4645 260.533 66.9719L19.9975 182.904C18.9339 183.412 17.8702 184.299 17.1104 185.314L177.873 270.17L260.686 230.343C263.268 229.074 265.396 226.03 265.396 223.62V74.9629L272.689 70.7771L264.18 66.8451Z" fill="#97DFFF"/>
<path d="M274.059 227.679C274.059 230.216 271.931 233.133 269.348 234.402L28.6597 350.461C26.0765 351.729 23.9493 350.715 23.9493 348.178V193.812C23.9493 191.276 26.0765 188.359 28.6597 187.09L269.348 71.0309C271.931 69.7625 274.059 70.7772 274.059 73.314V227.679Z" fill="#55C3FE"/>
<path d="M269.499 216.39L28.5073 332.449V193.559L269.499 77.3727V216.39Z" fill="#E6F7FF"/>
<path d="M267.068 78.5144V214.741L28.5073 329.785V332.449L269.499 216.39V77.3727L267.068 78.5144Z" fill="white"/>
<path d="M246.857 111.493L150.825 157.79V153.224L246.857 106.927V111.493Z" fill="#CBE9F4"/>
<path d="M246.858 119.738L96.8839 192.037V187.47L246.858 115.172V119.738Z" fill="#CBE9F4"/>
<path d="M246.858 127.982L96.8839 200.281V195.715L246.858 123.416V127.982Z" fill="#CBE9F4"/>
<path d="M246.858 136.227L96.8839 208.526V203.833L246.858 131.534V136.227Z" fill="#CBE9F4"/>
<path d="M246.858 144.345L96.8839 216.644V212.078L246.858 139.779V144.345Z" fill="#CBE9F4"/>
<path d="M246.858 152.59L96.8839 224.889V220.322L246.858 148.023V152.59Z" fill="#CBE9F4"/>
<path d="M246.857 168.952L150.825 215.249V210.682L246.857 164.385V168.952Z" fill="#CBE9F4"/>
<path d="M246.858 177.196L96.8839 249.496V244.929L246.858 172.63V177.196Z" fill="#CBE9F4"/>
<path d="M246.858 185.441L96.8839 257.74V253.174L246.858 180.875V185.441Z" fill="#CBE9F4"/>
<path d="M246.858 193.559L96.8839 265.985V261.292L246.858 188.993V193.559Z" fill="#CBE9F4"/>
<path d="M246.858 201.804L96.8839 274.103V269.536L246.858 197.237V201.804Z" fill="#CBE9F4"/>
<path d="M168.908 247.72L96.8839 282.347V277.781L168.908 243.027V247.72Z" fill="#CBE9F4"/>
<path d="M479.342 347.036L350.336 284.757L325.417 138.002L350.336 126.08L479.342 188.359V347.036Z" fill="#144682"/>
<path d="M472.96 344.246L451.384 353.505L325.873 143.33L349.729 132.041L472.96 191.403V344.246Z" fill="white"/>
<path d="M454.422 358.959L325.417 296.681V138.002L454.422 200.154V358.959Z" fill="#2D5CA0"/>
<path d="M450.319 360.989L321.314 298.837L296.242 152.082L321.314 140.159L450.319 202.311V360.989Z" fill="#1890C6"/>
<path d="M443.938 358.325L422.209 367.457L296.851 157.409L320.707 146.12L443.938 205.482V358.325Z" fill="white"/>
<path d="M425.399 372.912L296.242 310.76V152.082L425.399 214.234V372.912Z" fill="#55C3FE"/>
<path d="M296.242 310.76V152.082L425.399 214.234L296.242 310.76Z" fill="#C4DDE8"/>
<path d="M329.216 158.805L318.275 153.604V134.197L323.746 140.666L329.216 137.623V158.805Z" fill="#EA4266"/>
<path d="M246.555 446.479L126.971 388.766V366.443L287.43 311.521L407.014 369.107L246.555 446.479Z" fill="#144682"/>
<path d="M287.43 304.291L133.049 364.16V384.454L246.555 439.249L407.014 362.003L287.43 304.291Z" fill="#E5E5E5"/>
<path d="M287.43 299.09L261.75 309.111V373.165H133.049V379.253L246.555 434.049L407.014 356.802L287.43 299.09Z" fill="#F4F4F4"/>
<path d="M287.43 294.397L261.75 304.291V373.165H133.049V374.56L246.555 429.228L407.014 351.983L287.43 294.397Z" fill="white"/>
<path d="M246.555 424.028L126.971 366.443L287.43 289.197L407.014 346.783L246.555 424.028Z" fill="#2D5CA0"/>
<path d="M247.012 416.038L133.353 361.369V340.06L285.758 287.928L399.417 342.596L247.012 416.038Z" fill="#1890C6"/>
<path d="M285.759 281.079L138.975 337.904V357.183L247.011 409.315L399.416 335.874L285.759 281.079Z" fill="#E5E5E5"/>
<path d="M285.759 276.132L261.446 285.518V346.402H138.975V352.236L247.011 404.368L399.416 330.927L285.759 276.132Z" fill="#F4F4F4"/>
<path d="M285.759 271.566L261.446 281.079V346.402H138.975V347.797L247.011 399.802L399.416 326.361L285.759 271.566Z" fill="white"/>
<path d="M247.012 394.855L133.353 340.06L285.758 266.619L399.417 321.414L247.012 394.855Z" fill="#55C3FE"/>
<path d="M247.771 389.401L139.28 337.016V316.721L284.847 266.873L393.491 319.131L247.771 389.401Z" fill="#EA4266"/>
<path d="M284.848 260.277L144.598 314.692V333.083L247.772 382.805L393.492 312.662L284.848 260.277Z" fill="#E5E5E5"/>
<path d="M284.848 255.584L261.599 264.59V322.809H144.598V328.39L247.772 378.112L393.492 307.969L284.848 255.584Z" fill="#F4F4F4"/>
<path d="M284.848 251.272L261.599 260.277V322.809H144.598V324.078L247.772 373.8L393.492 303.529L284.848 251.272Z" fill="white"/>
<path d="M247.771 369.107L139.28 316.721L284.847 246.578L393.491 298.837L247.771 369.107Z" fill="#FE7386"/>
<path d="M204.315 285.391L284.848 246.578L344.108 274.991L204.315 285.391Z" fill="#EF92A9"/>
<path d="M380.727 97.5402C380.727 97.5402 380.879 96.2721 384.982 104.009C389.085 111.746 379.208 136.354 376.777 139.018C374.345 141.681 344.715 149.292 338.182 140.92C342.284 139.144 338.334 136.607 339.093 132.675C351.249 136.227 363.253 128.109 367.052 125.572C373.13 121.26 369.483 108.195 380.727 97.5402Z" fill="#C7EBF9"/>
<path d="M333.318 222.859C333.318 222.859 324.353 228.567 322.377 230.85C320.402 233.26 324.656 235.67 331.95 232.499C339.244 229.328 340.763 228.44 342.131 227.806C343.498 227.171 343.195 226.157 343.042 224.508C342.587 222.732 333.318 222.859 333.318 222.859Z" fill="white"/>
<path d="M341.979 226.791C340.612 227.426 339.092 228.313 331.799 231.484C326.329 233.894 322.682 233.006 321.922 231.484C321.163 233.64 325.113 235.416 331.799 232.499C339.092 229.328 340.612 228.44 341.979 227.806C343.043 227.298 343.196 226.664 343.043 225.523C342.891 226.03 342.74 226.41 341.979 226.791Z" fill="#4C4C4C"/>
<path d="M410.661 150.306C410.661 150.306 410.356 167.303 392.275 171.108C374.192 174.787 355.199 182.524 355.199 182.524L343.347 225.396C343.347 225.396 340.763 226.41 338.333 226.03C334.23 225.396 332.711 222.859 332.711 222.859C332.711 222.859 331.342 192.164 335.141 178.845C339.092 165.527 371.457 149.926 371.457 149.926L410.661 150.306Z" fill="#112F5B"/>
<path d="M360.973 237.7C360.973 237.7 352.007 243.407 350.032 245.69C348.056 248.1 352.311 250.511 359.605 247.34C366.898 244.169 368.418 243.28 369.785 242.646C371.153 242.012 371.001 240.998 370.697 239.348C370.241 237.573 360.973 237.7 360.973 237.7Z" fill="white"/>
<path d="M369.634 241.632C368.267 242.266 366.747 243.153 359.454 246.324C353.983 248.735 350.336 247.847 349.577 246.324C348.817 248.481 352.768 250.256 359.454 247.34C366.747 244.169 368.267 243.28 369.634 242.646C370.698 242.139 370.85 241.505 370.698 240.363C370.546 240.997 370.242 241.378 369.634 241.632Z" fill="#4C4C4C"/>
<path d="M428.591 160.453C428.591 160.453 430.262 177.45 412.787 182.651C395.313 187.851 377.232 197.11 377.232 197.11L370.698 238.461C370.698 238.461 368.875 240.109 365.379 240.109C361.733 240.109 359.757 238.08 359.757 238.08C359.757 238.08 355.655 206.75 357.934 193.178C360.213 179.606 384.829 163.751 384.829 163.751L428.591 160.453Z" fill="#164072"/>
<path d="M368.875 151.448C368.875 151.448 366.899 100.585 385.59 94.6234C404.127 88.6613 421.298 102.867 428.591 116.567C435.885 130.265 433.909 154.111 428.591 162.99C403.063 177.577 368.267 158.424 368.875 151.448Z" fill="#E6F7FF"/>
<path d="M428.591 116.44C421.297 102.741 404.279 88.535 385.589 94.4963C384.981 94.7498 384.373 95.004 383.765 95.2575C397.441 96.6527 409.141 107.688 414.763 118.469C422.057 132.168 420.082 156.014 414.763 164.893C412.18 166.415 409.597 167.43 406.862 168.317C414.156 168.317 421.601 166.795 428.439 162.99C433.909 154.111 435.733 130.139 428.591 116.44Z" fill="white"/>
<path d="M380.422 71.9187C380.422 71.9187 375.711 78.1339 379.966 91.5789C383.309 102.487 383.917 108.575 389.234 108.956C394.705 109.464 410.963 106.038 409.292 94.7498C410.963 94.4964 414.306 89.2962 411.571 85.1098C408.988 80.9242 407.164 85.4904 407.164 85.4904C407.164 85.4904 407.317 76.4852 399.719 73.1871C391.969 69.8893 380.422 71.9187 380.422 71.9187Z" fill="url(#paint0_linear)"/>
<path d="M398.353 82.7C398.353 82.193 392.578 89.0419 383.157 86.8856C386.348 86.1252 387.107 84.2223 387.107 84.2223C387.107 84.2223 383.917 87.6467 378.599 86.505C380.878 85.7446 381.941 84.8563 381.941 84.8563C381.941 84.8563 378.447 86.3786 374.952 85.2369C377.079 84.4758 376.775 83.334 376.775 83.334C376.775 83.334 374.952 84.8563 371.153 82.193C372.673 82.0659 372.52 76.2309 377.991 72.1723C383.461 67.9866 387.868 67.0987 395.01 68.1134C393.185 66.5913 391.362 65.7034 388.779 66.0839C391.667 64.6887 397.744 67.0987 399.568 69.3819C405.19 67.6061 415.826 70.6502 412.332 87.7738C412.332 87.3932 411.724 84.6029 409.748 83.9688C407.773 83.4611 406.102 86.7592 406.557 87.5204C407.013 88.4079 407.165 93.2282 407.165 93.2282L404.582 94.3692C404.582 94.3692 405.342 90.1836 403.519 88.7884C401.999 87.6467 398.656 89.169 398.353 82.7Z" fill="#112F5B"/>
<path d="M336.053 121.133L346.993 133.436L382.702 126.46L380.574 164.893L348.209 164.639L337.573 153.731L336.053 121.133Z" fill="white"/>
<path d="M336.053 115.933L346.993 133.436L348.209 164.639L337.573 153.731L336.053 115.933Z" fill="#E6F7FF"/>
<path d="M389.997 147.262C389.997 147.262 388.933 148.657 386.654 147.262C384.375 145.867 383.464 143.457 382.095 142.569C381.944 145.613 382.095 147.769 377.537 147.769C372.979 147.642 370.092 147.135 367.508 147.389C364.925 147.516 367.964 157.029 381.336 157.282C388.63 156.902 391.821 153.477 391.821 153.477L389.997 147.262Z" fill="url(#paint1_linear)"/>
<path d="M336.662 135.212C336.662 135.212 339.093 139.398 340.612 139.905C342.132 140.413 340.916 147.389 336.357 145.105C331.647 142.823 333.927 135.339 336.662 135.212Z" fill="url(#paint2_linear)"/>
<path d="M413.701 114.917C413.701 114.917 414.46 104.39 423.273 108.575C432.087 112.761 441.508 137.495 441.508 140.92C441.508 144.218 400.633 160.834 389.388 157.282C391.516 153.858 391.516 149.418 389.237 145.867C401.544 142.696 417.347 138.763 420.082 135.339C422.666 131.915 412.181 128.997 413.701 114.917Z" fill="#C7EBF9"/>
<path d="M303.232 342.47V419.209L381.182 441.786L400.632 429.228L303.232 342.47Z" fill="#35AFE5"/>
<path d="M303.232 342.47L336.964 326.108L372.825 348.178L339.091 364.413L303.232 342.47Z" fill="#97DFFF"/>
<path d="M338.941 372.658L372.826 356.296V348.178L339.092 364.413L338.941 372.658Z" fill="#55C3FE"/>
<path d="M338.941 372.658L372.826 356.296L381.183 360.354L347.45 376.717L338.941 372.658Z" fill="#97DFFF"/>
<path d="M347.45 384.834L381.183 368.472V360.354L347.45 376.717V384.834Z" fill="#55C3FE"/>
<path d="M347.448 384.834L381.181 368.472L389.69 372.531L355.957 388.893L347.448 384.834Z" fill="#97DFFF"/>
<path d="M355.958 397.011L389.69 380.649V372.531L355.958 388.893V397.011Z" fill="#55C3FE"/>
<path d="M355.958 397.011L389.69 380.649L398.047 384.834L364.315 401.07L355.958 397.011Z" fill="#97DFFF"/>
<path d="M364.315 409.188L398.047 392.952V384.834L364.315 401.07V409.188Z" fill="#55C3FE"/>
<path d="M364.315 409.314L398.047 392.952L406.556 397.011L372.823 413.374L364.315 409.314Z" fill="#97DFFF"/>
<path d="M372.824 421.491L406.556 405.129V397.011L372.824 413.374V421.491Z" fill="#55C3FE"/>
<path d="M372.825 421.491L406.558 405.129L415.067 409.188L381.183 425.551L372.825 421.491Z" fill="#97DFFF"/>
<path d="M381.183 433.668L415.067 417.306V409.188L381.183 425.551V433.668Z" fill="#55C3FE"/>
<path d="M381.183 433.668L415.067 417.306L423.424 421.365L389.691 437.727L381.183 433.668Z" fill="#97DFFF"/>
<path d="M389.691 445.845L423.424 429.609V421.365L389.691 437.727V445.845Z" fill="#55C3FE"/>
<path d="M372.825 421.365V413.247L364.316 409.188V401.07L355.958 397.011V388.893L347.449 384.834V376.717L339.091 372.658V364.413L303.232 342.47L381.182 441.786L389.691 445.845V437.727L381.182 433.668V425.551L372.825 421.365Z" fill="#35AFE5"/>
<path d="M165.109 276.132V310.76C165.109 317.863 170.731 324.966 181.976 330.42C204.465 341.328 241.085 341.328 263.573 330.42C274.817 324.966 280.439 317.863 280.439 310.76V276.132H165.109Z" fill="#0A253F"/>
<path d="M220.572 321.161L121.652 273.468V271.185H319.49V273.468L220.572 321.161Z" fill="#0B2D4F"/>
<path d="M220.572 318.877L121.652 271.185L220.572 223.493L319.49 271.185L220.572 318.877Z" fill="#164072"/>
<path d="M275.273 323.571H271.93V294.27L219.811 272.454L221.331 269.917L275.273 292.494V323.571Z" fill="#FFD629"/>
<path d="M227.713 271.693C227.713 273.215 225.13 274.61 222.091 274.61C218.901 274.61 216.469 273.341 216.469 271.693C216.469 270.17 219.052 268.775 222.091 268.775C225.13 268.902 227.713 270.17 227.713 271.693Z" fill="#FFD629"/>
<path d="M277.705 336.762V322.175C277.705 320.4 275.882 318.877 273.754 318.877C271.627 318.877 269.803 320.4 269.803 322.175V336.762H277.705Z" fill="#FFF42C"/>
<path d="M388.325 0L283.784 34.247L328.761 38.6864L388.325 0Z" fill="#55C3FE"/>
<path d="M328.153 38.5595L335.142 54.922L388.324 0L328.153 38.5595Z" fill="#97DFFF"/>
<path d="M343.045 42.3648L335.143 54.922L388.325 0L343.045 42.3648Z" fill="#55C3FE"/>
<path d="M388.324 0L374.345 57.5857L343.044 42.3648L388.324 0Z" fill="#55C3FE"/>
<path d="M325.264 55.4294L322.985 53.7805C325.569 51.2437 326.936 49.8484 326.936 49.8484L329.216 51.4973C329.216 51.6242 327.848 53.0195 325.264 55.4294Z" fill="#35AFE5"/>
<path d="M360.062 331.688C358.542 331.688 356.87 331.688 355.351 331.688V329.151C359.454 329.151 363.405 329.151 367.355 329.151L367.507 331.688C365.076 331.688 362.645 331.688 360.062 331.688ZM343.195 331.308C339.7 331.181 336.054 330.927 332.406 330.674L331.039 330.547L331.343 328.01L332.711 328.137C336.357 328.39 340.004 328.644 343.499 328.771L343.195 331.308ZM379.815 331.054L379.511 328.517C383.614 328.264 387.564 327.883 391.515 327.503L391.971 330.04C388.02 330.547 383.918 330.8 379.815 331.054ZM318.883 329.278C314.781 328.771 310.83 328.264 306.879 327.629L307.487 325.093C311.285 325.727 315.389 326.234 319.339 326.742L318.883 329.278ZM403.975 328.517L403.367 325.98C407.318 325.346 411.269 324.585 415.219 323.824L415.979 326.234C412.028 327.122 408.078 327.883 403.975 328.517ZM294.875 325.473C290.925 324.712 286.974 323.697 283.023 322.809L283.934 320.4C287.733 321.414 291.532 322.302 295.483 323.063L294.875 325.473ZM427.831 323.571L426.919 321.161C430.718 320.145 434.669 319.004 438.315 317.736L439.379 320.145C435.58 321.287 431.629 322.429 427.831 323.571ZM271.627 319.385C267.828 318.116 264.03 316.848 260.383 315.326L261.75 313.042C265.245 314.438 269.044 315.833 272.842 316.974L271.627 319.385ZM450.471 315.96L449.104 313.677C452.751 312.155 456.245 310.506 459.588 308.857L461.108 311.013C457.765 312.789 454.27 314.438 450.471 315.96ZM249.442 310.632C245.796 308.857 242.453 306.955 239.11 305.052L240.933 303.022C244.124 304.925 247.467 306.827 250.962 308.476L249.442 310.632ZM471.441 305.305L469.617 303.276C472.808 301.247 475.999 299.09 478.886 296.934L480.862 298.836C477.974 301.12 474.784 303.276 471.441 305.305ZM229.689 298.583C226.65 296.3 223.762 293.763 221.027 291.226L223.307 289.577C225.89 292.114 228.625 294.397 231.664 296.681L229.689 298.583ZM489.674 291.607L487.395 289.957C490.13 287.421 492.562 284.757 494.688 282.094L497.272 283.489C494.993 286.279 492.409 288.943 489.674 291.607ZM213.582 282.981C211.303 280.191 209.175 277.147 207.352 274.102L210.088 272.961C211.911 275.878 213.886 278.796 216.166 281.586L213.582 282.981ZM503.502 274.61L500.766 273.468C502.59 270.424 504.109 267.38 505.325 264.336L508.213 265.097C506.996 268.268 505.325 271.439 503.502 274.61ZM202.49 264.717C201.123 261.545 199.907 258.248 198.995 254.822L201.882 254.188C202.794 257.487 204.009 260.657 205.225 263.701L202.49 264.717ZM511.099 255.077L508.06 254.696C508.668 251.652 508.972 248.608 508.972 245.69V244.803H512.011V245.69C512.011 248.735 511.707 251.906 511.099 255.077ZM196.868 244.803C196.412 241.505 196.108 238.08 195.956 234.529H198.995C199.147 237.953 199.299 241.251 199.907 244.548L196.868 244.803ZM507.757 234.908C506.996 231.737 505.933 228.44 504.565 225.396L507.452 224.508C508.972 227.805 510.036 231.103 510.795 234.402L507.757 234.908ZM199.299 224.508L196.26 224.381C196.564 221.083 197.019 217.658 197.627 214.234L200.667 214.615C200.059 217.786 199.603 221.21 199.299 224.508ZM499.399 216.39C497.424 213.6 495.144 210.809 492.714 208.146L495.144 206.623C497.728 209.287 500.159 212.204 502.135 215.122L499.399 216.39ZM203.097 204.72L200.211 204.086C201.123 200.789 202.338 197.491 203.553 194.193L206.44 194.954C205.073 198.252 204.009 201.423 203.097 204.72ZM210.695 185.695L207.96 184.68C209.631 181.509 211.303 178.338 213.278 175.421L216.013 176.562C214.038 179.48 212.215 182.524 210.695 185.695ZM221.939 167.937L219.356 166.542C221.483 163.878 223.762 160.961 226.042 158.043L228.625 159.439C226.194 162.482 224.067 165.274 221.939 167.937ZM235.463 151.194L233.032 149.799C235.311 147.008 237.742 144.345 240.174 141.554L242.604 143.076C240.174 145.74 237.894 148.531 235.463 151.194ZM249.746 134.831L247.315 133.31C249.746 130.646 252.177 127.855 254.609 125.191L257.04 126.714C254.609 129.378 252.177 132.041 249.746 134.831ZM264.333 118.596L261.902 117.074C264.333 114.41 266.917 111.746 269.348 109.083L271.779 110.605C269.348 113.269 266.764 115.933 264.333 118.596ZM279.225 102.614L276.793 101.092C279.376 98.4284 281.807 95.7644 284.391 93.1011L286.822 94.6234C284.391 97.2867 281.807 99.9507 279.225 102.614ZM294.419 86.7592L291.988 85.1098C294.571 82.3194 297.154 79.7825 299.585 77.2456L301.864 78.895C299.585 81.4319 297.003 83.9688 294.419 86.7592ZM309.767 71.0307L307.487 69.3818C310.374 66.4644 312.957 63.9276 315.236 61.5176L317.516 63.1666C315.236 65.5766 312.653 68.1134 309.767 71.0307Z" fill="#35AFE5"/>
<path d="M484.507 200.789C483.14 199.647 481.62 198.506 480.1 197.491L482.076 195.588C483.595 196.73 485.266 197.872 486.635 199.013L484.507 200.789Z" fill="#35AFE5"/>
<path d="M14.2256 254.569L11.3385 253.682C12.858 250.764 15.1372 247.34 15.2892 247.34V252.54C14.9853 253.047 15.2892 252.54 14.2256 254.569Z" fill="#1D6BAA"/>
<path d="M64.3688 337.904C62.5454 337.904 60.5701 337.904 58.5947 337.777L58.7467 335.24C63.0013 335.493 67.1039 335.367 70.7507 335.24L70.903 337.777C68.7752 337.777 66.4961 337.904 64.3688 337.904ZM46.1349 336.509C41.7284 335.874 37.7777 335.113 33.9789 333.972L34.8906 331.561C38.5374 332.577 42.3362 333.337 46.5907 333.972L46.1349 336.509ZM83.3624 336.128L82.603 333.717C86.5531 332.957 90.3519 331.815 93.8472 330.42L95.2146 332.703C91.4158 334.098 87.4648 335.24 83.3624 336.128ZM22.4308 329.785C18.6321 327.883 15.2892 325.727 12.5541 323.19L14.8333 321.414C17.4164 323.698 20.6074 325.854 24.1022 327.63L22.4308 329.785ZM105.851 326.995L104.027 324.966C107.067 322.937 109.954 320.527 112.384 317.863L114.816 319.385C112.081 322.302 109.042 324.839 105.851 326.995ZM5.41245 314.311C3.58899 311.267 2.37341 307.842 1.46176 304.291L4.50072 303.784C5.26048 307.208 6.47606 310.379 8.14755 313.169L5.41245 314.311ZM121.502 310.76L118.767 309.618C120.59 306.701 122.11 303.657 123.325 300.358L126.212 301.12C124.845 304.418 123.325 307.716 121.502 310.76ZM0.398064 293.89V293.636C0.398064 290.465 0.702003 287.041 1.30979 283.489L4.34875 283.87C3.74096 287.294 3.58908 290.592 3.58908 293.636V293.89H0.398064ZM129.252 290.973L126.212 290.465C126.972 287.294 127.427 283.87 127.732 280.444L130.77 280.572C130.467 284.123 129.859 287.675 129.252 290.973ZM6.47606 273.849L3.58908 273.215C4.50072 269.917 5.7163 266.619 7.08385 263.194L9.97093 263.956C8.60338 267.38 7.38779 270.678 6.47606 273.849ZM128.036 270.297C128.036 266.999 127.732 263.575 127.427 260.151L130.467 259.896C130.923 263.448 131.075 266.873 131.075 270.297H128.036ZM125.909 250.003C125.301 246.705 124.541 243.407 123.63 239.982L126.668 239.475C127.58 242.9 128.339 246.324 128.947 249.622L125.909 250.003ZM120.742 230.089C119.679 226.918 118.462 223.62 117.247 220.322L120.134 219.561C121.35 222.859 122.566 226.157 123.63 229.455L120.742 230.089ZM113.296 210.555C112.081 207.257 110.866 203.96 109.802 200.662L112.689 200.028C113.753 203.326 114.816 206.623 116.032 209.794L113.296 210.555ZM107.067 190.641C106.307 187.217 105.547 183.792 104.939 180.494L107.979 180.114C108.587 183.412 109.346 186.836 110.105 190.134L107.067 190.641ZM103.572 170.22C103.268 166.795 102.964 163.244 102.812 159.946L105.851 159.819C106.003 163.117 106.307 166.542 106.611 169.966L103.572 170.22ZM105.699 149.545L102.66 149.418C102.812 145.994 102.964 142.442 103.419 139.144L106.459 139.398C106.003 142.696 105.851 146.121 105.699 149.545ZM107.979 129.378L104.939 128.997C105.699 125.572 106.459 122.147 107.523 118.849L110.41 119.484C109.498 122.528 108.738 125.952 107.979 129.378ZM114.056 109.717L111.169 108.83C112.689 105.404 114.36 102.233 116.032 99.3159L118.767 100.458C117.095 103.375 115.424 106.419 114.056 109.717ZM124.997 91.8323L122.566 90.3107C124.997 87.3932 127.883 84.7292 130.77 82.3194L132.898 84.0952C130.011 86.3786 127.427 88.9155 124.997 91.8323ZM199.604 79.6561C195.805 78.1338 192.006 76.8657 188.36 75.8504L189.271 73.4408C193.07 74.4555 196.869 75.8504 200.819 77.3727L199.604 79.6561ZM142.319 78.1338L140.799 75.9775C144.446 74.2018 148.397 72.6797 152.347 71.7918L153.26 74.2018C149.309 75.09 145.662 76.3581 142.319 78.1338ZM176.811 73.3139C172.709 72.6797 168.759 72.5529 164.807 72.6797L164.655 70.1429C168.759 70.0161 172.861 70.2697 177.267 70.9039L176.811 73.3139Z" fill="#1D6BAA"/>
<path d="M215.559 87.3933C213.887 86.505 212.216 85.4904 210.545 84.7292L212.064 82.5736C213.736 83.4612 215.559 84.3494 217.23 85.364L215.559 87.3933Z" fill="#1D6BAA"/>
<path d="M23.9497 75.8511C23.9497 75.8511 23.7977 84.9834 29.4199 86.8856C33.9784 86.1252 28.8121 76.3581 28.8121 76.3581L23.9497 75.8511Z" fill="#112F5B"/>
<path d="M93.5418 149.038C94.3012 148.657 94.9092 148.023 95.3651 147.389L91.5663 149.165C92.7824 149.165 93.5418 149.165 93.5418 149.038Z" fill="#E2E2E2"/>
<path d="M96.1254 160.453C96.1254 160.453 87.4639 161.087 85.6406 167.049C84.1209 172.123 81.6895 169.079 82.2976 169.966C82.7534 170.854 87.1603 178.085 91.4149 174.914C95.6686 171.742 101.747 168.445 99.3161 161.722C97.4928 160.58 96.1254 160.453 96.1254 160.453Z" fill="#0B223D"/>
<path d="M72.574 173.011C72.574 173.011 63.9127 173.645 62.0893 179.606C60.5698 184.68 60.5698 184.933 61.0257 185.948C61.4816 186.836 63.4569 190.768 67.7114 187.597C71.966 184.427 80.323 183.412 78.0439 176.816C76.3728 175.293 72.574 173.011 72.574 173.011Z" fill="#112F5B"/>
<path d="M57.5314 87.0127C57.5314 87.0127 57.3794 85.7446 53.2769 93.4817C49.1742 101.219 59.0509 125.826 61.4821 128.489C63.9133 131.153 93.5436 138.763 100.077 130.392C95.9749 128.617 99.9251 126.08 99.1657 122.147C87.0098 125.699 69.5355 119.611 65.7367 117.074C59.6587 112.762 68.7761 97.6673 57.5314 87.0127Z" fill="url(#paint3_linear)"/>
<path d="M103.727 212.331C103.727 212.331 113.907 218.039 115.882 220.322C117.858 222.605 113.603 225.142 106.309 221.971C99.0161 218.8 97.4964 217.913 96.129 217.278C94.7615 216.644 94.7615 213.346 96.129 211.444C97.1919 209.921 103.727 212.331 103.727 212.331Z" fill="#FE7386"/>
<path d="M96.1272 216.263C97.4946 216.897 99.0143 217.786 106.308 220.957C111.778 223.366 115.425 222.479 116.185 220.957C116.944 223.113 112.993 224.889 106.308 221.971C99.0143 218.8 97.4946 217.913 96.1272 217.278C95.0642 216.771 94.9119 216.137 95.0642 214.995C95.2155 215.502 95.52 215.883 96.1272 216.263Z" fill="#4C4C4C"/>
<path d="M27.5979 139.778C27.5979 139.778 27.9017 156.775 45.9837 160.58C64.0658 164.258 87.6179 170.093 87.6179 170.093L96.583 213.219C96.583 213.219 99.6215 215.756 102.053 214.995C104.181 214.234 103.725 212.458 103.725 212.458C103.725 212.458 104.94 180.494 101.597 167.176C99.1657 157.282 57.228 142.442 57.228 142.442L27.5979 139.778Z" fill="url(#paint4_linear)"/>
<path d="M99.1657 161.848C89.4412 150.433 66.6486 139.525 66.6486 139.525L27.4457 139.905C27.4457 139.905 27.7496 156.902 45.8316 160.707C61.0265 163.878 80.0203 171.742 84.5785 173.518C84.7308 166.288 91.1122 158.805 99.1657 161.848Z" fill="#112F5B"/>
<path d="M77.2845 227.171C77.2845 227.171 86.2495 232.879 88.2251 235.163C90.2006 237.446 85.946 239.982 78.6519 236.811C71.3588 233.64 69.8391 232.753 68.4717 232.119C67.1042 231.484 67.1042 227.933 68.6239 225.65C69.6878 224.128 77.2845 227.171 77.2845 227.171Z" fill="#FE7386"/>
<path d="M68.623 231.103C69.9905 231.738 71.5101 232.626 78.8042 235.797C84.274 238.206 87.9206 237.319 88.6809 235.797C89.4403 237.953 85.4901 239.729 78.8042 236.811C71.5101 233.64 69.9905 232.753 68.623 232.119C67.5597 231.611 67.4078 230.977 67.5597 229.835C67.7116 230.343 67.8636 230.723 68.623 231.103Z" fill="#4C4C4C"/>
<path d="M9.66753 149.926C9.66753 149.926 7.99612 166.922 25.4703 172.123C42.9444 177.323 64.5213 183.919 64.5213 183.919L68.7761 226.664C68.7761 226.664 70.2949 228.567 73.7901 228.567C77.4367 228.567 77.2854 227.045 77.2854 227.045C77.2854 227.045 81.0842 196.096 78.8042 182.524C76.5251 168.952 53.4289 153.097 53.4289 153.097L9.66753 149.926Z" fill="url(#paint5_linear)"/>
<path d="M78.0448 176.562C71.3588 164.766 53.4289 153.097 53.4289 153.097L9.66753 149.799C9.66753 149.799 7.99612 166.795 25.4703 171.996C40.8172 176.562 58.5953 185.695 62.0901 187.47C64.3693 181.128 68.0161 174.659 78.0448 176.562Z" fill="#164072"/>
<path d="M69.231 140.92C69.231 140.92 71.2066 90.0566 52.5166 84.0952C33.9787 78.1339 16.8084 92.34 9.51484 106.038C2.22126 119.738 4.1966 143.584 9.51484 152.463C35.1943 167.049 69.9904 147.897 69.231 140.92Z" fill="#FFA9B8"/>
<path d="M9.66618 105.912C16.9598 92.2129 33.9781 78.0067 52.6679 83.9688C53.2757 84.2223 53.8835 84.4757 54.4913 84.73C40.8158 86.1251 29.1158 97.1596 23.4936 107.941C16.2 121.641 18.1753 145.486 23.4936 154.365C26.0767 155.887 28.6599 156.902 31.395 157.79C24.1014 157.79 16.6559 156.268 9.81815 152.463C4.34794 143.457 2.3726 119.611 9.66618 105.912Z" fill="#FFC0CF"/>
<path d="M57.8343 61.264C57.8343 61.264 62.5447 67.4792 58.2902 80.9242C54.9473 91.8323 54.3395 97.9208 49.0213 98.3013C43.551 98.809 27.2924 95.3838 28.9639 84.0952C27.2924 83.8417 23.9496 78.6415 26.6846 74.4555C29.2678 70.2697 31.0912 74.8358 31.0912 74.8358C31.0912 74.8358 30.9392 65.8303 38.6886 62.5324C46.2861 59.3614 57.8343 61.264 57.8343 61.264Z" fill="url(#paint6_linear)"/>
<path d="M39.9041 72.1723C39.9041 71.665 45.6782 78.5144 55.0991 76.3581C51.9082 75.5969 51.1484 73.6945 51.1484 73.6945C51.1484 73.6945 54.3393 77.1192 59.6576 75.9775C57.3784 75.2164 56.3147 74.3287 56.3147 74.3287C56.3147 74.3287 59.8095 75.8504 63.3043 74.7092C61.1771 73.9481 61.4809 72.8066 61.4809 72.8066C61.4809 72.8066 63.3043 74.3287 67.1031 71.665C65.5836 71.5382 65.7356 65.7035 60.2653 61.6446C54.7951 57.4589 50.3886 56.571 43.247 57.5857C45.0704 56.0636 46.8938 55.1757 49.477 55.5562C46.5899 54.161 40.5119 56.571 38.6885 58.8541C33.0664 57.0783 22.43 60.1225 25.9247 77.2463C25.9247 76.8658 26.5326 74.075 28.508 73.4408C30.4833 72.9334 32.1547 76.231 31.6989 76.9921C31.243 77.8804 31.0911 82.7 31.0911 82.7L33.6742 83.8417C33.6742 83.8417 32.9145 79.6562 34.7379 78.261C36.2574 77.1192 39.6003 78.6415 39.9041 72.1723Z" fill="#112F5B"/>
<path d="M102.203 110.478L91.1113 122.909L55.5549 115.933L57.5302 154.365L90.0475 153.985L100.684 143.203L102.203 110.478Z" fill="white"/>
<path d="M102.202 105.278L91.1105 122.909L90.0466 153.985L100.683 143.203L102.202 105.278Z" fill="#E6F7FF"/>
<path d="M101.443 124.557C101.443 124.557 99.0116 128.744 97.4919 129.251C95.9722 129.758 97.1884 136.734 101.747 134.451C106.457 132.295 104.33 124.812 101.443 124.557Z" fill="url(#paint7_linear)"/>
<path d="M70.9012 136.734C68.3184 136.607 65.4313 137.115 60.8729 137.115C56.3144 137.242 56.4664 135.086 56.3144 131.915C54.9468 132.802 54.0352 135.212 51.7559 136.607C49.4767 138.002 48.413 136.607 48.413 136.607L47.9572 136.861C31.5467 134.451 19.8466 131.026 17.2634 127.728C14.3764 124.557 21.6699 114.41 22.2777 105.278C22.2777 105.278 23.7973 93.8623 14.9842 97.9208C6.17105 102.106 3.28407 131.534 3.28407 134.831C3.28407 138.129 32.9142 142.823 48.2611 143.964C50.8443 145.233 54.0352 146.374 57.2261 146.501C70.4454 146.501 73.4848 136.861 70.9012 136.734Z" fill="url(#paint8_linear)"/>
<path d="M24.5574 104.263C24.5574 104.263 23.7977 93.7352 14.9846 97.9208C10.4261 100.077 5.86765 111.366 2.37278 118.596C7.53905 121.894 13.0093 123.543 18.9353 124.431C21.0626 121.641 25.6211 114.03 24.5574 104.263Z" fill="#FC88A1"/>
<path d="M63.7605 65.7035C63.7605 65.7035 63.1527 73.1872 25.4692 76.231C24.2536 75.09 23.4939 73.4408 23.1899 71.4114C22.4302 67.3525 23.3419 62.5326 24.5575 60.6299C26.3808 57.7126 25.925 53.9073 23.7977 52.0048C21.6704 50.229 22.1263 46.297 29.4199 49.0874C37.0173 52.0048 56.011 49.8485 63.7605 65.7035Z" fill="#FC88A1"/>
<path d="M23.3422 71.665C23.3422 71.665 30.3318 73.314 44.4631 71.1577C58.5945 69.0014 62.0893 64.9425 62.2412 62.913C66.3439 63.0399 65.7361 67.733 65.1283 68.6209C63.153 71.7919 41.5761 79.5291 25.6214 76.9921C22.4304 75.5969 22.4304 72.6797 23.3422 71.665Z" fill="white"/>
<path d="M22.2783 53.0195C25.2154 53.0195 27.5964 51.0318 27.5964 48.58C27.5964 46.1282 25.2154 44.1406 22.2783 44.1406C19.341 44.1406 16.96 46.1282 16.96 48.58C16.96 51.0318 19.341 53.0195 22.2783 53.0195Z" fill="white"/>
<defs>
<linearGradient id="paint0_linear" x1="412.367" y1="86.9813" x2="379.868" y2="93.059" gradientUnits="userSpaceOnUse">
<stop stop-color="#FFE2C4"/>
<stop offset="1" stop-color="#FFB870"/>
</linearGradient>
<linearGradient id="paint1_linear" x1="390.669" y1="148.77" x2="367.248" y2="153.149" gradientUnits="userSpaceOnUse">
<stop stop-color="#FFB870"/>
<stop offset="1" stop-color="#FFE2C4"/>
</linearGradient>
<linearGradient id="paint2_linear" x1="341.072" y1="139.862" x2="333.694" y2="141.241" gradientUnits="userSpaceOnUse">
<stop stop-color="#FFB870"/>
<stop offset="1" stop-color="#FFE2C4"/>
</linearGradient>
<linearGradient id="paint3_linear" x1="52.2186" y1="110.555" x2="100.101" y2="110.555" gradientUnits="userSpaceOnUse">
<stop stop-color="#FFB870"/>
<stop offset="1" stop-color="#FFE2C4"/>
</linearGradient>
<linearGradient id="paint4_linear" x1="27.5431" y1="177.426" x2="104.011" y2="177.426" gradientUnits="userSpaceOnUse">
<stop stop-color="#FFE2C4"/>
<stop offset="1" stop-color="#FFB870"/>
</linearGradient>
<linearGradient id="paint5_linear" x1="9.63332" y1="189.258" x2="79.5627" y2="189.258" gradientUnits="userSpaceOnUse">
<stop stop-color="#FFE2C4"/>
<stop offset="1" stop-color="#FFB870"/>
</linearGradient>
<linearGradient id="paint6_linear" x1="25.8477" y1="76.4171" x2="58.3461" y2="82.4948" gradientUnits="userSpaceOnUse">
<stop stop-color="#FFE2C4"/>
<stop offset="1" stop-color="#FFB870"/>
</linearGradient>
<linearGradient id="paint7_linear" x1="97.1418" y1="129.298" x2="104.521" y2="130.678" gradientUnits="userSpaceOnUse">
<stop stop-color="#FFB870"/>
<stop offset="1" stop-color="#FFE2C4"/>
</linearGradient>
<linearGradient id="paint8_linear" x1="3.20857" y1="121.887" x2="71.7914" y2="121.887" gradientUnits="userSpaceOnUse">
<stop stop-color="#FFB870"/>
<stop offset="1" stop-color="#FFE2C4"/>
</linearGradient>
</defs>
</svg>
