<svg width="308" height="44" viewBox="0 0 308 44" fill="none" xmlns="http://www.w3.org/2000/svg">
<path d="M43.6875 1.96875V2.85938C42.5312 3.04688 41.7031 3.34375 41.2031 3.75C40.7344 4.125 40.3281 4.78125 39.9844 5.71875C38.9531 8.53125 37.8438 11.5469 36.6562 14.7656C35.125 18.9531 34 22.0938 33.2812 24.1875C32.125 27.5625 31.1094 30.6719 30.2344 33.5156H29.5312C28.9688 31.8906 28.2344 29.8438 27.3281 27.375C26.6719 25.625 25.7344 23.1719 24.5156 20.0156C24.1094 18.9531 23.2812 16.8438 22.0312 13.6875L14.8125 33.5156H14.1094C12.9219 29.9531 11.3438 25.4531 9.375 20.0156C7.71875 15.4531 6.28125 11.5625 5.0625 8.34375C4.46875 6.8125 3.98438 5.6875 3.60938 4.96875C2.85938 3.5625 1.73438 2.85938 0.234375 2.85938V1.96875H11.7188V2.85938C9.6875 2.85938 8.67188 3.39063 8.67188 4.45312C8.67188 4.79688 8.70312 5.09375 8.76562 5.34375C8.82812 5.59375 8.96875 5.98437 9.1875 6.51562L15.9375 24.1406L20.9531 10.9219L19.4062 7.07812C18.6562 5.20312 18 4.03125 17.4375 3.5625C16.875 3.09375 15.9531 2.85938 14.6719 2.85938V1.96875H27.1875V2.85938C26.125 2.85938 25.3438 2.9375 24.8438 3.09375C24 3.375 23.5781 3.89062 23.5781 4.64062C23.5781 4.92188 23.7031 5.42187 23.9531 6.14062C24.2344 6.82812 24.5312 7.54688 24.8438 8.29688L31.0312 24.2812L36.8906 8.39062C37.1094 7.85937 37.2812 7.28125 37.4062 6.65625C37.5625 6.03125 37.6406 5.48438 37.6406 5.01562C37.6406 4.20312 37.3594 3.64062 36.7969 3.32812C36.2656 3.01563 35.4688 2.85938 34.4062 2.85938V1.96875H43.6875ZM63.375 25.3125L64.125 25.6406C63.5938 27.2656 62.7344 28.75 61.5469 30.0938C59.5469 32.3438 57.0938 33.4688 54.1875 33.4688C51.5312 33.4688 49.4062 32.5469 47.8125 30.7031C46.2188 28.8594 45.4219 26.2812 45.4219 22.9688C45.4219 19.0625 46.5469 16.0625 48.7969 13.9688C50.6094 12.2812 52.6719 11.4375 54.9844 11.4375C57.3281 11.4375 59.1875 12.0938 60.5625 13.4062C62.0938 14.8438 62.9844 17.0469 63.2344 20.0156H48.6562C48.6562 23.7656 49.5 26.5 51.1875 28.2188C52.5 29.5625 54.1406 30.2344 56.1094 30.2344C57.9219 30.2344 59.5156 29.6406 60.8906 28.4531C61.6719 27.7656 62.5 26.7188 63.375 25.3125ZM48.7969 18.5156H58.4531C58.2031 16.8906 57.875 15.7188 57.4688 15C56.75 13.75 55.5781 13.125 53.9531 13.125C52.5469 13.125 51.4219 13.5312 50.5781 14.3438C49.7656 15.125 49.1719 16.5156 48.7969 18.5156ZM72.2344 17.9062V29.7188C72.2344 30.4375 72.8281 31.0156 74.0156 31.4531C74.9531 31.7969 75.8594 31.9688 76.7344 31.9688C79.1094 31.9688 80.7969 30.9688 81.7969 28.9688C82.5156 27.5312 82.875 25.7344 82.875 23.5781C82.875 21.0781 82.4219 19 81.5156 17.3438C80.4531 15.375 78.9219 14.3906 76.9219 14.3906C75.8906 14.3906 74.9219 14.6406 74.0156 15.1406C72.8281 15.7969 72.2344 16.7188 72.2344 17.9062ZM68.2969 30.4688V6.14062C68.2969 5.23437 68.2188 4.65625 68.0625 4.40625C67.7812 3.96875 67.1719 3.75 66.2344 3.75L65.2031 3.79688V3.04688C67.4219 2.45313 68.75 2.09375 69.1875 1.96875C69.625 1.8125 70.5625 1.48437 72 0.984375L72.2344 1.07812V15.2344C72.4844 14.5156 73.1562 13.75 74.25 12.9375C75.625 11.9375 77.0938 11.4375 78.6562 11.4375C81.3125 11.4375 83.4062 12.5469 84.9375 14.7656C86.3125 16.7344 87 19.0938 87 21.8438C87 24.5625 86.1875 27.0156 84.5625 29.2031C82.4375 32.0469 79.4375 33.4688 75.5625 33.4688C74.1875 33.4688 72.6875 33.1875 71.0625 32.625C69.2188 31.9688 68.2969 31.25 68.2969 30.4688ZM113.109 33V32.1094C114.859 32.1094 115.984 31.8281 116.484 31.2656C116.984 30.7031 117.234 29.5781 117.234 27.8906V7.07812C117.234 5.29688 116.984 4.15625 116.484 3.65625C116.016 3.125 114.891 2.85938 113.109 2.85938V1.96875H125.766C131.547 1.96875 136.062 3.25 139.312 5.8125C142.75 8.53125 144.469 12.4531 144.469 17.5781C144.469 21.5469 143.266 24.8906 140.859 27.6094C137.672 31.2031 132.859 33 126.422 33H113.109ZM122.016 5.53125V29.3438C122.016 30.125 122.203 30.6406 122.578 30.8906C122.953 31.1406 123.703 31.2656 124.828 31.2656C126.859 31.2656 128.547 31.1094 129.891 30.7969C132.578 30.1719 134.703 28.9844 136.266 27.2344C138.328 24.9531 139.359 21.75 139.359 17.625C139.359 15.4688 139.031 13.5156 138.375 11.7656C137.719 9.98438 136.594 8.39062 135 6.98438C133.75 5.85938 132.422 5.0625 131.016 4.59375C129.266 4 127 3.70312 124.219 3.70312C123.25 3.70312 122.609 3.89062 122.297 4.26562C122.109 4.48437 122.016 4.90625 122.016 5.53125ZM165.328 25.3125L166.078 25.6406C165.547 27.2656 164.688 28.75 163.5 30.0938C161.5 32.3438 159.047 33.4688 156.141 33.4688C153.484 33.4688 151.359 32.5469 149.766 30.7031C148.172 28.8594 147.375 26.2812 147.375 22.9688C147.375 19.0625 148.5 16.0625 150.75 13.9688C152.562 12.2812 154.625 11.4375 156.938 11.4375C159.281 11.4375 161.141 12.0938 162.516 13.4062C164.047 14.8438 164.938 17.0469 165.188 20.0156H150.609C150.609 23.7656 151.453 26.5 153.141 28.2188C154.453 29.5625 156.094 30.2344 158.062 30.2344C159.875 30.2344 161.469 29.6406 162.844 28.4531C163.625 27.7656 164.453 26.7188 165.328 25.3125ZM150.75 18.5156H160.406C160.156 16.8906 159.828 15.7188 159.422 15C158.703 13.75 157.531 13.125 155.906 13.125C154.5 13.125 153.375 13.5312 152.531 14.3438C151.719 15.125 151.125 16.5156 150.75 18.5156ZM189.375 11.9062V12.6094C188.625 12.6719 188.078 12.9375 187.734 13.4062C187.391 13.8438 186.922 14.7969 186.328 16.2656L180.328 31.3125C179.984 32.125 179.75 32.6719 179.625 32.9531C179.406 33.4219 179.219 33.6562 179.062 33.6562C178.844 33.6562 178.641 33.4844 178.453 33.1406C178.297 32.7969 178.078 32.2344 177.797 31.4531C176.922 29.2031 175.781 26.4062 174.375 23.0625C172.625 18.9062 171.328 16 170.484 14.3438C170.141 13.6562 169.766 13.2031 169.359 12.9844C168.953 12.7344 168.469 12.6094 167.906 12.6094V11.9062H177.094V12.6094C176.406 12.6094 175.875 12.7031 175.5 12.8906C175.125 13.0781 174.938 13.4531 174.938 14.0156C174.938 14.2969 174.984 14.5781 175.078 14.8594C175.172 15.1406 175.266 15.4062 175.359 15.6562L180.141 27.6562C180.359 27.0625 181.375 24.4688 183.188 19.875C184.438 16.7188 185.062 14.8125 185.062 14.1562C185.062 13.6562 184.844 13.2812 184.406 13.0312C184 12.75 183.484 12.6094 182.859 12.6094V11.9062H189.375ZM209.578 25.3125L210.328 25.6406C209.797 27.2656 208.938 28.75 207.75 30.0938C205.75 32.3438 203.297 33.4688 200.391 33.4688C197.734 33.4688 195.609 32.5469 194.016 30.7031C192.422 28.8594 191.625 26.2812 191.625 22.9688C191.625 19.0625 192.75 16.0625 195 13.9688C196.812 12.2812 198.875 11.4375 201.188 11.4375C203.531 11.4375 205.391 12.0938 206.766 13.4062C208.297 14.8438 209.188 17.0469 209.438 20.0156H194.859C194.859 23.7656 195.703 26.5 197.391 28.2188C198.703 29.5625 200.344 30.2344 202.312 30.2344C204.125 30.2344 205.719 29.6406 207.094 28.4531C207.875 27.7656 208.703 26.7188 209.578 25.3125ZM195 18.5156H204.656C204.406 16.8906 204.078 15.7188 203.672 15C202.953 13.75 201.781 13.125 200.156 13.125C198.75 13.125 197.625 13.5312 196.781 14.3438C195.969 15.125 195.375 16.5156 195 18.5156ZM212.25 33V32.2969C213.625 32.2969 214.562 32.0625 215.062 31.5938C215.594 31.0938 215.859 30.2031 215.859 28.9219V6.5625C215.859 5.4375 215.734 4.6875 215.484 4.3125C215.234 3.90625 214.656 3.70312 213.75 3.70312L212.156 3.79688V3.04688C214.531 2.45313 216.078 2.0625 216.797 1.875C216.984 1.8125 217.922 1.51563 219.609 0.984375L219.797 1.07812V29.0625C219.797 30.4062 220.031 31.2812 220.5 31.6875C220.969 32.0938 221.906 32.2969 223.312 32.2969V33H212.25ZM235.781 11.4375C238.938 11.4375 241.484 12.4062 243.422 14.3438C245.359 16.2812 246.328 18.9375 246.328 22.3125C246.328 25 245.484 27.4375 243.797 29.625C241.828 32.1875 239.203 33.4688 235.922 33.4688C232.922 33.4688 230.453 32.4219 228.516 30.3281C226.609 28.2031 225.656 25.5312 225.656 22.3125C225.656 19.2812 226.547 16.75 228.328 14.7188C230.234 12.5312 232.719 11.4375 235.781 11.4375ZM236.578 32.1562C238.047 32.1562 239.266 31.5938 240.234 30.4688C241.484 29 242.109 26.7344 242.109 23.6719C242.109 20.6406 241.516 18.0625 240.328 15.9375C239.141 13.8125 237.5 12.75 235.406 12.75C233.844 12.75 232.531 13.3906 231.469 14.6719C230.406 15.9219 229.875 17.7188 229.875 20.0625C229.875 22.7812 230.281 25.2188 231.094 27.375C232.281 30.5625 234.109 32.1562 236.578 32.1562ZM251.25 39.1406V17.2031C251.25 16.3594 251.219 15.8125 251.156 15.5625C250.969 14.875 250.406 14.5312 249.469 14.5312L248.156 14.5781V13.8281C250.406 13.1094 252.656 12.3125 254.906 11.4375L255.188 11.5312V14.9531L255.281 15.0469C256 14.1094 256.797 13.3438 257.672 12.75C258.984 11.875 260.438 11.4375 262.031 11.4375C264.219 11.4375 266.047 12.3594 267.516 14.2031C269.016 16.0156 269.766 18.4531 269.766 21.5156C269.766 24.5156 268.938 27.1875 267.281 29.5312C265.406 32.1562 262.953 33.4688 259.922 33.4688C258.953 33.4688 258.109 33.3281 257.391 33.0469C256.703 32.7656 255.969 32.2344 255.188 31.4531V38.8125C255.188 40.2812 255.453 41.2344 255.984 41.6719C256.516 42.1094 257.625 42.3281 259.312 42.3281V43.1719H247.969V42.375C249.406 42.375 250.344 42.0938 250.781 41.5312C251.094 41.125 251.25 40.3281 251.25 39.1406ZM255.188 17.3438V28.875C255.188 29.4688 255.688 30.1406 256.688 30.8906C257.688 31.6094 258.781 31.9688 259.969 31.9688C261.844 31.9688 263.297 31.1094 264.328 29.3906C265.266 27.8594 265.734 25.7031 265.734 22.9219C265.734 20.4219 265.203 18.3594 264.141 16.7344C263.109 15.0781 261.656 14.25 259.781 14.25C258.844 14.25 257.875 14.5469 256.875 15.1406C255.875 15.7344 255.312 16.4688 255.188 17.3438ZM290.297 25.3125L291.047 25.6406C290.516 27.2656 289.656 28.75 288.469 30.0938C286.469 32.3438 284.016 33.4688 281.109 33.4688C278.453 33.4688 276.328 32.5469 274.734 30.7031C273.141 28.8594 272.344 26.2812 272.344 22.9688C272.344 19.0625 273.469 16.0625 275.719 13.9688C277.531 12.2812 279.594 11.4375 281.906 11.4375C284.25 11.4375 286.109 12.0938 287.484 13.4062C289.016 14.8438 289.906 17.0469 290.156 20.0156H275.578C275.578 23.7656 276.422 26.5 278.109 28.2188C279.422 29.5625 281.062 30.2344 283.031 30.2344C284.844 30.2344 286.438 29.6406 287.812 28.4531C288.594 27.7656 289.422 26.7188 290.297 25.3125ZM275.719 18.5156H285.375C285.125 16.8906 284.797 15.7188 284.391 15C283.672 13.75 282.5 13.125 280.875 13.125C279.469 13.125 278.344 13.5312 277.5 14.3438C276.688 15.125 276.094 16.5156 275.719 18.5156ZM295.547 29.0625V17.3438C295.547 16.125 295.375 15.3125 295.031 14.9062C294.812 14.6562 294.438 14.5312 293.906 14.5312C293.594 14.5312 293.344 14.5469 293.156 14.5781C292.969 14.5781 292.688 14.625 292.312 14.7188V13.9688C294.781 13.1562 297.094 12.3125 299.25 11.4375L299.484 11.5312V15.7031C300.609 14.0781 301.594 12.9688 302.438 12.375C303.312 11.75 304.219 11.4375 305.156 11.4375C306.844 11.4375 307.688 12.2812 307.688 13.9688C307.688 14.5625 307.516 15.0625 307.172 15.4688C306.859 15.8438 306.438 16.0312 305.906 16.0312C305.312 16.0312 304.703 15.7656 304.078 15.2344C303.484 14.6719 303.016 14.3906 302.672 14.3906C302.109 14.3906 301.438 14.8438 300.656 15.75C299.875 16.6562 299.484 17.4844 299.484 18.2344V28.7812C299.484 30.25 299.844 31.2344 300.562 31.7344C301.125 32.1094 302.094 32.2969 303.469 32.2969V33H292.219V32.2969C293.625 32.0469 294.5 31.7812 294.844 31.5C295.312 31.125 295.547 30.3125 295.547 29.0625Z" fill="black"/>
</svg>
