<svg width="182" height="200" viewBox="0 0 182 200" fill="none" xmlns="http://www.w3.org/2000/svg">
<path d="M82.6 2.6689C87.6 -0.162351 93.975 -0.174851 98.85 2.6689L173.5 44.7501C178.169 47.3751 181.294 52.5814 181.25 57.9627V142.338C181.281 147.944 177.85 153.263 172.925 155.838L98.675 197.725C96.1354 199.129 93.2664 199.826 90.3659 199.746C87.4655 199.666 84.6394 198.811 82.1813 197.269L59.9 184.394C58.3813 183.488 56.675 182.769 55.6 181.3C56.55 180.025 58.2375 179.863 59.6125 179.3C62.7125 178.313 65.55 176.8 68.4 175.2C69.1188 174.7 70 174.888 70.6875 175.338L89.6875 186.325C91.0438 187.106 92.4188 186.075 93.5813 185.419L166.488 144.275C167.387 143.838 167.888 142.888 167.813 141.9V58.3377C167.913 57.2127 167.269 56.1876 166.25 55.7314L92.1875 14.0251C91.7607 13.7299 91.2543 13.5713 90.7354 13.5702C90.2164 13.5691 89.7093 13.7255 89.2813 14.0189L15.325 55.8127C14.325 56.2689 13.6375 57.2814 13.7625 58.4064V141.969C13.675 142.956 14.2 143.888 15.1063 144.313L34.8688 155.469C38.5813 157.469 43.1375 158.594 47.225 157.125C49.0137 156.451 50.5536 155.246 51.6383 153.672C52.723 152.098 53.3006 150.23 53.2938 148.319L53.3125 65.2564C53.225 64.0252 54.3875 63.0064 55.5813 63.1314H65.0813C66.3313 63.1002 67.3125 64.4251 67.1438 65.6627L67.125 149.25C67.1313 156.675 64.0813 164.75 57.2125 168.394C48.75 172.769 38.2875 171.85 29.925 167.644L8.67501 155.894C3.67501 153.394 0.318759 147.994 0.350009 142.394V58.0189C0.370798 55.2766 1.1247 52.5897 2.53355 50.2369C3.94241 47.884 5.95494 45.9508 8.36251 44.6376L82.6 2.6689ZM104.125 61.1564C114.919 60.5314 126.475 60.7439 136.188 66.0627C143.706 70.1376 147.875 78.6877 148.012 87.0502C147.8 88.1752 146.625 88.8001 145.55 88.7189C142.425 88.7126 139.288 88.7627 136.15 88.7002C134.819 88.7502 134.05 87.5252 133.881 86.3502C132.981 82.3502 130.8 78.3939 127.038 76.4627C121.263 73.5689 114.562 73.7127 108.262 73.7752C103.662 74.0252 98.7188 74.4189 94.825 77.1189C91.825 79.1689 90.925 83.3689 91.9938 86.6314C92.9938 89.0252 95.7625 89.7939 98.0188 90.5064C111.031 93.9064 124.812 93.6314 137.581 98.0501C142.863 99.8752 148.031 103.425 149.844 108.956C152.206 116.369 151.175 125.231 145.906 131.181C141.631 136.081 135.406 138.681 129.188 140.194C120.919 142.038 112.344 142.081 103.95 141.256C96.0563 140.356 87.8438 138.281 81.75 132.906C76.5375 128.381 74 121.331 74.25 114.531C74.3125 113.381 75.4563 112.581 76.5625 112.675H85.9375C87.2 112.588 88.125 113.675 88.1875 114.863C88.7688 118.613 90.2 122.675 93.525 124.863C99.9375 129 107.981 128.713 115.319 128.831C121.4 128.563 128.225 128.481 133.194 124.456C135.819 122.163 136.588 118.331 135.881 115.031C135.113 112.244 132.131 110.95 129.631 110.031C116.788 105.969 102.85 107.444 90.1313 102.844C84.9688 101.019 79.975 97.5689 77.9938 92.2626C75.225 84.7626 76.4938 75.4689 82.325 69.7189C87.95 64.0001 96.2 61.7939 104.013 61.0064L104.125 61.1564Z" fill="#8CC84B"/>
</svg>
